<svg width="36" height="36" viewBox="0 0 36 36" fill="none" xmlns="http://www.w3.org/2000/svg">
<path d="M7 7C10.6645 3.33548 12.4968 1.50322 14.5804 0.744998C16.7893 -0.0588186 19.2107 -0.0588186 21.4196 0.744998C23.5032 1.50322 25.3355 3.33548 29 7C32.6645 10.6645 34.4968 12.4968 35.255 14.5804C36.0588 16.7893 36.0588 19.2107 35.255 21.4196C34.4968 23.5032 32.6645 25.3355 29 29C25.3355 32.6645 23.5032 34.4968 21.4196 35.255C19.2107 36.0588 16.7893 36.0588 14.5804 35.255C12.4968 34.4968 10.6645 32.6645 7 29C3.33548 25.3355 1.50322 23.5032 0.744998 21.4196C-0.0588186 19.2107 -0.0588186 16.7893 0.744998 14.5804C1.50322 12.4968 3.33548 10.6645 7 7Z" fill="url(#paint0_linear_1176_559)" fill-opacity="0.1"/>
<path d="M7.35355 7.35355C9.1912 5.5159 10.55 4.15759 11.7089 3.16188C12.8638 2.16958 13.7899 1.56473 14.7514 1.21485C16.8498 0.451229 19.1502 0.451229 21.2486 1.21485C22.2101 1.56473 23.1362 2.16958 24.2911 3.16188C25.45 4.15759 26.8088 5.5159 28.6464 7.35355C30.4841 9.1912 31.8424 10.55 32.8381 11.7089C33.8304 12.8638 34.4353 13.7899 34.7851 14.7514C35.5488 16.8498 35.5488 19.1502 34.7851 21.2486C34.4353 22.2101 33.8304 23.1362 32.8381 24.2911C31.8424 25.45 30.4841 26.8088 28.6464 28.6464C26.8088 30.4841 25.45 31.8424 24.2911 32.8381C23.1362 33.8304 22.2101 34.4353 21.2486 34.7851C19.1502 35.5488 16.8498 35.5488 14.7514 34.7851C13.7899 34.4353 12.8638 33.8304 11.7089 32.8381C10.55 31.8424 9.1912 30.4841 7.35355 28.6464C5.5159 26.8088 4.15759 25.45 3.16188 24.2911C2.16958 23.1362 1.56473 22.2101 1.21485 21.2486C0.451229 19.1502 0.451229 16.8498 1.21485 14.7514C1.56473 13.7899 2.16958 12.8638 3.16188 11.7089C4.15759 10.55 5.5159 9.1912 7.35355 7.35355Z" stroke="white" stroke-opacity="0.5" style="mix-blend-mode:overlay"/>
<defs>
<linearGradient id="paint0_linear_1176_559" x1="-26" y1="18" x2="18" y2="62" gradientUnits="userSpaceOnUse">
<stop stop-color="#0F55E8"/>
<stop offset="1" stop-color="#9DDFF3"/>
</linearGradient>
</defs>
</svg>
